<?xml version="1.0" encoding="utf-8"?>
<svg width="950.2803px" height="900px" viewBox="0 0 950.2803 900" version="1.1" xmlns:xlink="http://www.w3.org/1999/xlink" xmlns="http://www.w3.org/2000/svg">
  <defs>
    <radialGradient gradientUnits="objectBoundingBox" cx="50.000233%" cy="50.000065%" fx="50.000233%" fy="50.000065%" r="41.987442%" gradientTransform="translate(0.5000023,0.50000066),scale(1,0.99999726),rotate(82.0112),translate(-0.5000023,-0.50000066)" id="gradient_1">
      <stop offset="0%" stop-color="#D3DDEA" />
      <stop offset="100%" stop-color="#F8F9FA" />
    </radialGradient>
    <radialGradient gradientUnits="objectBoundingBox" cx="50.044666%" cy="48.42334%" fx="50.044666%" fy="48.42334%" r="57.71258%" gradientTransform="translate(0.5004467,0.48423338),scale(1,0.99468553),rotate(109.895996),scale(1,1.1965711),translate(-0.5004467,-0.48423338)" id="gradient_2">
      <stop offset="0%" stop-color="#F6E5BB" />
      <stop offset="79.0659%" stop-color="#F9B97E" />
      <stop offset="100%" stop-color="#CA6919" />
    </radialGradient>
    <radialGradient gradientUnits="objectBoundingBox" cx="47.10415%" cy="52.874577%" fx="47.10415%" fy="52.874577%" r="47.636566%" gradientTransform="translate(0.47104147,0.5287458),scale(1,0.99349946),rotate(107.44599),scale(1,1.1995028),translate(-0.47104147,-0.5287458)" id="gradient_3">
      <stop offset="0%" stop-color="#F0D36D" />
      <stop offset="40.243%" stop-color="#F2C76C" />
      <stop offset="100%" stop-color="#F47835" />
    </radialGradient>
    <radialGradient gradientUnits="objectBoundingBox" cx="46.952267%" cy="50.4774%" fx="46.952267%" fy="50.4774%" r="57.08681%" gradientTransform="translate(0.46952268,0.50477403),scale(1,0.9935124),rotate(102.840996),scale(1,1.2001133),translate(-0.46952268,-0.50477403)" id="gradient_4">
      <stop offset="0%" stop-color="#F0D36D" />
      <stop offset="40.243%" stop-color="#F2C76C" />
      <stop offset="100%" stop-color="#F0864C" />
    </radialGradient>
    <linearGradient gradientUnits="objectBoundingBox" x1="0.5" y1="1.9436963" x2="0.60647297" y2="0.12246275" id="gradient_5">
      <stop offset="0%" stop-color="#F2BA5D" />
      <stop offset="100%" stop-color="#D55561" />
    </linearGradient>
    <linearGradient gradientUnits="objectBoundingBox" x1="0.5" y1="1.9436963" x2="0.60647297" y2="0.12246299" id="gradient_6">
      <stop offset="0%" stop-color="#F2BA5D" />
      <stop offset="100%" stop-color="#D55561" />
    </linearGradient>
    <linearGradient gradientUnits="objectBoundingBox" x1="0.49999905" y1="1.9436946" x2="0.6064415" y2="0.12245703" id="gradient_7">
      <stop offset="0%" stop-color="#F2BA5D" />
      <stop offset="100%" stop-color="#D55561" />
    </linearGradient>
    <linearGradient gradientUnits="objectBoundingBox" x1="0.49999905" y1="1.9436965" x2="0.606472" y2="0.12245226" id="gradient_8">
      <stop offset="0%" stop-color="#F2BA5D" />
      <stop offset="100%" stop-color="#D55561" />
    </linearGradient>
    <linearGradient gradientUnits="objectBoundingBox" x1="0.5000005" y1="1.9437051" x2="0.60647917" y2="0.12246275" id="gradient_9">
      <stop offset="0%" stop-color="#F2BA5D" />
      <stop offset="100%" stop-color="#D55561" />
    </linearGradient>
    <linearGradient gradientUnits="objectBoundingBox" x1="-0.5288296" y1="1.3518257" x2="-0.36900616" y2="-0.109392166" id="gradient_10">
      <stop offset="0%" stop-color="#A58F78" />
      <stop offset="100%" stop-color="#F5E6D5" />
    </linearGradient>
    <linearGradient gradientUnits="objectBoundingBox" x1="0.93564606" y1="-1.0555763" x2="1.5197315" y2="0.42140818" id="gradient_11">
      <stop offset="0%" stop-color="#A58F78" />
      <stop offset="100%" stop-color="#F5E6D5" />
    </linearGradient>
    <linearGradient gradientUnits="objectBoundingBox" x1="0.93565655" y1="-1.0555887" x2="1.5197287" y2="0.42139816" id="gradient_12">
      <stop offset="0%" stop-color="#A58F78" />
      <stop offset="100%" stop-color="#F5E6D5" />
    </linearGradient>
    <linearGradient gradientUnits="objectBoundingBox" x1="1.7057819" y1="-0.053239346" x2="1.2418861" y2="1.3171029" id="gradient_13">
      <stop offset="0%" stop-color="#A58F78" />
      <stop offset="100%" stop-color="#F5E6D5" />
    </linearGradient>
    <linearGradient gradientUnits="objectBoundingBox" x1="-0.24468422" y1="-0.5968361" x2="1.1886024" y2="-0.32546997" id="gradient_14">
      <stop offset="0%" stop-color="#A58F78" />
      <stop offset="100%" stop-color="#F5E6D5" />
    </linearGradient>
    <linearGradient gradientUnits="objectBoundingBox" x1="0.5" y1="1.943696" x2="0.60647297" y2="0.12245178" id="gradient_15">
      <stop offset="0%" stop-color="#F2BA5D" />
      <stop offset="100%" stop-color="#D55561" />
    </linearGradient>
    <linearGradient gradientUnits="objectBoundingBox" x1="0.5" y1="1.9437037" x2="0.60648537" y2="0.12246466" id="gradient_16">
      <stop offset="0%" stop-color="#F2BA5D" />
      <stop offset="100%" stop-color="#D55561" />
    </linearGradient>
    <linearGradient gradientUnits="objectBoundingBox" x1="0.5" y1="1.943697" x2="0.60647297" y2="0.12245226" id="gradient_17">
      <stop offset="0%" stop-color="#F2BA5D" />
      <stop offset="100%" stop-color="#D55561" />
    </linearGradient>
    <linearGradient gradientUnits="objectBoundingBox" x1="0.5" y1="1.9436965" x2="0.6064739" y2="0.12245178" id="gradient_18">
      <stop offset="0%" stop-color="#F2BA5D" />
      <stop offset="100%" stop-color="#D55561" />
    </linearGradient>
    <linearGradient gradientUnits="objectBoundingBox" x1="0.5000005" y1="1.9437046" x2="0.6064739" y2="0.12245703" id="gradient_19">
      <stop offset="0%" stop-color="#F2BA5D" />
      <stop offset="100%" stop-color="#D55561" />
    </linearGradient>
    <linearGradient gradientUnits="objectBoundingBox" x1="0.691298" y1="0.7893646" x2="-0.025579453" y2="0.21410394" id="gradient_20">
      <stop offset="0%" stop-color="#64B581" />
      <stop offset="100%" stop-color="#8DE691" />
    </linearGradient>
    <linearGradient gradientUnits="objectBoundingBox" x1="0.76260185" y1="0.44191694" x2="0.09833288" y2="0.93852377" id="gradient_21">
      <stop offset="0%" stop-color="#64B581" />
      <stop offset="100%" stop-color="#8DE691" />
    </linearGradient>
    <linearGradient gradientUnits="objectBoundingBox" x1="0.5681429" y1="0.25678253" x2="0.74928856" y2="0.9353614" id="gradient_22">
      <stop offset="0%" stop-color="#64B581" />
      <stop offset="100%" stop-color="#8DE691" />
    </linearGradient>
    <linearGradient gradientUnits="objectBoundingBox" x1="0.7244587" y1="0.69085455" x2="0.032022476" y2="0.50595" id="gradient_23">
      <stop offset="0%" stop-color="#64B581" />
      <stop offset="100%" stop-color="#8DE691" />
    </linearGradient>
    <linearGradient gradientUnits="objectBoundingBox" x1="0.76260185" y1="0.44192266" x2="0.098332405" y2="0.9385307" id="gradient_24">
      <stop offset="0%" stop-color="#64B581" />
      <stop offset="100%" stop-color="#8DE691" />
    </linearGradient>
    <radialGradient gradientUnits="objectBoundingBox" cx="54.645782%" cy="53.058636%" fx="54.645782%" fy="53.058636%" r="73.60222%" gradientTransform="translate(0.5464578,0.53058636),scale(0.8835503,1),rotate(75.5482),scale(1,1.0312742),translate(-0.5464578,-0.53058636)" id="gradient_25">
      <stop offset="0%" stop-color="#F6E5BB" />
      <stop offset="49.8119%" stop-color="#F9B97E" />
      <stop offset="100%" stop-color="#CA6919" />
    </radialGradient>
    <radialGradient gradientUnits="objectBoundingBox" cx="36.144062%" cy="43.2425%" fx="36.144062%" fy="43.2425%" r="63.225815%" gradientTransform="translate(0.36144063,0.43242502),scale(0.886202,1),rotate(55.22399),scale(1,1.1283838),translate(-0.36144063,-0.43242502)" id="gradient_26">
      <stop offset="0%" stop-color="#F0D36D" />
      <stop offset="40.243%" stop-color="#F2C76C" />
      <stop offset="99.9208%" stop-color="#F47835" />
    </radialGradient>
    <radialGradient gradientUnits="objectBoundingBox" cx="13.664794%" cy="30.048319%" fx="13.664794%" fy="30.048319%" r="65007.684%" gradientTransform="translate(0.13664794,0.3004832),scale(0.88640594,1),rotate(91.876656),scale(1,0.7634907),translate(-0.13664794,-0.3004832)" id="gradient_27">
      <stop offset="0%" stop-color="#F0D36D" />
      <stop offset="52.133793%" stop-color="#F2C76C" />
      <stop offset="100%" stop-color="#E77B40" />
    </radialGradient>
    <linearGradient gradientUnits="objectBoundingBox" x1="0.5" y1="1.9434528" x2="0.6047144" y2="0.12240791" id="gradient_28">
      <stop offset="0%" stop-color="#F2BA5D" />
      <stop offset="100%" stop-color="#D55561" />
    </linearGradient>
    <linearGradient gradientUnits="objectBoundingBox" x1="-0.5288124" y1="1.3518257" x2="-0.36910248" y2="-0.109392166" id="gradient_29">
      <stop offset="0%" stop-color="#A58F78" />
      <stop offset="100%" stop-color="#F5E6D5" />
    </linearGradient>
    <linearGradient gradientUnits="objectBoundingBox" x1="0.50000095" y1="1.9436979" x2="0.6064739" y2="0.1224637" id="gradient_30">
      <stop offset="0%" stop-color="#F2BA5D" />
      <stop offset="100%" stop-color="#D55561" />
    </linearGradient>
    <linearGradient gradientUnits="objectBoundingBox" x1="0.5793085" y1="0.76666164" x2="0.035733223" y2="0.10539055" id="gradient_31">
      <stop offset="0%" stop-color="#64B581" />
      <stop offset="100%" stop-color="#8DE691" />
    </linearGradient>
  </defs>
  <g id="Chars" fill-opacity="1">
    <path d="M950.28 0L950.28 0L950.28 900L0 900L0 0L950.28 0Z" id="Chars" fill="none" stroke="none" />
    <g id="Mask-Group">
      <g id="Group">
        <path d="M895.574 387.467C930.112 633.553 758.624 861.042 512.534 895.577C266.448 930.115 38.9585 758.62 4.42249 512.534C-30.1135 266.448 141.382 38.9591 387.467 4.42252C633.551 -30.1136 861.046 141.381 895.574 387.467L895.574 387.467Z" id="Shape" fill="url(#gradient_1)" stroke="none" />
        <path d="M865.648 385.187C832.244 156.39 620.24 -2.73222 390.964 29.4445C160.905 61.7319 0.578362 274.405 32.8658 504.465C65.1522 734.525 277.827 894.85 507.886 862.564C604.429 849.015 688.686 803.703 751.59 738.672L443.234 446.873L865.648 385.187L865.648 385.187Z" id="Shape" fill="url(#gradient_2)" fill-rule="evenodd" stroke="none" />
        <path d="M808.963 392.567C780.102 194.859 597.647 62.6649 399.529 90.4696C200.73 118.369 62.1884 302.144 90.0882 500.943C117.988 699.742 301.764 838.283 500.563 810.383C583.987 798.676 658.343 758.798 712.702 702.603L446.383 450.038L808.963 392.567L808.963 392.567Z" id="Shape" fill="url(#gradient_3)" fill-rule="evenodd" stroke="none" />
        <path d="M792.154 394.815C764.602 206.095 590.439 79.9096 401.323 106.45C211.559 133.083 79.3142 308.504 105.946 498.268C132.577 688.03 308.001 820.273 497.764 793.641C577.399 782.466 648.374 744.401 700.263 690.76L455.249 458.401C451.487 454.834 453.452 448.502 458.572 447.69L792.154 394.815L792.154 394.815Z" id="Shape" fill="url(#gradient_4)" fill-rule="evenodd" stroke="none" />
        <path d="M246.617 228.266C243.258 204.332 259.937 182.206 283.871 178.847C307.805 175.488 329.93 192.168 333.289 216.102C336.648 240.036 319.969 262.161 296.035 265.52C272.101 268.879 249.975 252.2 246.617 228.266Z" id="Circle" fill="url(#gradient_5)" fill-rule="evenodd" stroke="none" />
        <path d="M441.358 182.898C437.999 158.964 454.679 136.839 478.613 133.48C502.547 130.121 524.672 146.8 528.031 170.735C531.39 194.669 514.711 216.794 490.777 220.153C466.842 223.512 444.717 206.832 441.358 182.898Z" id="Circle" fill="url(#gradient_6)" fill-rule="evenodd" stroke="none" />
        <path d="M606.453 279.674C602.408 250.855 622.492 224.214 651.31 220.17C680.129 216.126 706.769 236.209 710.814 265.027C714.858 293.846 694.775 320.487 665.956 324.531C637.138 328.575 610.497 308.492 606.453 279.674Z" id="Circle" fill="url(#gradient_7)" fill-rule="evenodd" stroke="none" />
        <path d="M448.386 355.065C445.027 331.131 461.707 309.006 485.641 305.647C509.575 302.288 531.7 318.967 535.059 342.901C538.418 366.835 521.739 388.961 497.805 392.32C473.871 395.678 451.745 378.999 448.386 355.065Z" id="Circle" fill="url(#gradient_8)" fill-rule="evenodd" stroke="none" />
        <path d="M323.636 417.213C319.763 389.616 338.995 364.104 366.593 360.231C394.19 356.358 419.702 375.59 423.575 403.187C427.448 430.785 408.216 456.296 380.618 460.17C353.021 464.043 327.509 444.81 323.636 417.213Z" id="Circle" fill="url(#gradient_9)" fill-rule="evenodd" stroke="none" />
        <path d="M310.172 459.696C309.008 455.469 304.933 452.725 300.578 453.233L269.768 456.829C245.167 459.7 225.54 481.507 236.699 503.619C240.195 510.547 244.922 517.335 251.312 523.08C259.125 530.102 268.64 534.56 278.363 537.327C306.389 545.302 325.585 515.64 317.845 487.549L310.172 459.696L310.172 459.696Z" id="Shape" fill="#F5E6D5" stroke="none" />
        <path d="M294.726 507.427C293.446 518.548 277.887 520.022 274.54 509.34L274.372 508.801C274.127 508.021 273.296 507.586 272.515 507.831C271.736 508.075 271.302 508.906 271.546 509.686L271.714 510.225C276.017 523.959 296.022 522.063 297.668 507.766L299.48 492.028C301.298 476.24 285.039 464.615 270.687 471.441L254.936 478.932C242.847 484.683 245.835 502.672 259.135 504.203L266.039 504.998C266.851 505.092 267.585 504.509 267.679 503.697C267.772 502.885 267.19 502.151 266.377 502.057L259.474 501.261C249.13 500.07 246.805 486.079 256.208 481.606L271.959 474.115C284.211 468.288 298.09 478.211 296.538 491.689L294.726 507.427L294.726 507.427Z" id="Shape" fill="url(#gradient_10)" fill-rule="evenodd" stroke="none" />
        <path d="M400.942 308.563C404.19 311.509 409.101 311.645 412.507 308.884L436.601 289.348C455.84 273.749 460.738 244.822 439.473 232.123C432.81 228.145 425.183 224.943 416.71 223.514C406.351 221.767 395.929 223.097 386.235 225.968C358.296 234.24 357.969 269.57 379.548 289.15L400.942 308.563L400.942 308.563Z" id="Shape" fill="#F5E6D5" stroke="none" />
        <path d="M388.428 259.981C383.553 249.904 395.905 240.327 404.451 247.556L404.882 247.92C405.507 248.449 406.44 248.371 406.969 247.747C407.497 247.122 407.419 246.188 406.794 245.66L406.363 245.296C395.375 236 379.495 248.313 385.761 261.27L392.658 275.531C399.578 289.838 419.534 290.951 427.999 277.5L437.29 262.738C444.421 251.408 432.263 237.816 420.211 243.645L413.956 246.67C413.219 247.026 412.911 247.911 413.267 248.648C413.623 249.384 414.509 249.692 415.245 249.335L421.501 246.311C430.874 241.777 440.33 252.348 434.784 261.161L425.494 275.922C418.267 287.405 401.231 286.455 395.324 274.243L388.428 259.981L388.428 259.981Z" id="Shape" fill="url(#gradient_11)" fill-rule="evenodd" stroke="none" />
        <path d="M445.936 706.269C449.182 709.216 454.094 709.352 457.499 706.591L481.593 687.055C500.833 671.456 505.73 642.529 484.465 629.83C477.803 625.852 470.176 622.651 461.703 621.222C451.344 619.475 440.921 620.805 431.227 623.675C403.288 631.947 402.961 667.278 424.54 686.857L445.936 706.269L445.936 706.269Z" id="Shape" fill="#F5E6D5" stroke="none" />
        <path d="M433.42 657.689C428.547 647.611 440.897 638.033 449.444 645.264L449.875 645.628C450.499 646.156 451.433 646.078 451.961 645.453C452.489 644.83 452.411 643.895 451.787 643.367L451.356 643.002C440.368 633.708 424.488 646.021 430.754 658.977L437.651 673.239C444.571 687.546 464.527 688.657 472.992 675.206L482.282 660.446C489.414 649.116 477.256 635.523 465.203 641.352L458.948 644.377C458.211 644.734 457.903 645.619 458.26 646.354C458.615 647.091 459.501 647.399 460.237 647.043L466.493 644.018C475.867 639.485 485.322 650.055 479.776 658.869L470.486 673.629C463.26 685.112 446.223 684.163 440.317 671.949L433.42 657.689L433.42 657.689Z" id="Shape" fill="url(#gradient_12)" fill-rule="evenodd" stroke="none" />
        <path d="M560.242 242.562C560.397 245.832 562.925 248.498 566.18 248.84L589.219 251.257C607.616 253.187 625.481 240.504 620.966 222.566C619.552 216.946 617.217 211.228 613.497 205.997C608.953 199.603 602.743 194.798 596.116 191.193C576.992 180.799 558.159 199.276 559.205 221.012L560.242 242.562L560.242 242.562Z" id="Shape" fill="#F5E6D5" stroke="none" />
        <path d="M579.298 210.305C582.049 202.411 593.636 203.881 594.324 212.212L594.363 212.632C594.411 213.241 594.944 213.693 595.555 213.643C596.165 213.591 596.611 213.058 596.562 212.449L596.523 212.029C595.642 201.318 580.751 199.428 577.215 209.578L573.32 220.75C569.416 231.957 579.366 243.087 590.933 240.458L603.635 237.574C613.39 235.36 614.146 221.763 604.71 218.473L599.808 216.765C599.236 216.565 598.606 216.869 598.403 217.445C598.2 218.022 598.509 218.652 599.081 218.854L603.983 220.561C611.327 223.121 610.736 233.696 603.15 235.418L590.449 238.302C580.567 240.546 572.071 231.045 575.413 221.477L579.298 210.305L579.298 210.305Z" id="Shape" fill="url(#gradient_13)" fill-rule="evenodd" stroke="none" />
        <path d="M277.515 338.936C280.752 338.318 283.054 335.431 282.936 332.137L282.098 308.836C281.428 290.231 266.272 274.212 249.033 281.24C243.631 283.442 238.261 286.575 233.572 291.017C227.84 296.447 223.927 303.308 221.268 310.426C213.603 330.943 234.671 347.112 256.185 343.007L277.515 338.936L277.515 338.936Z" id="Shape" fill="#F5E6D5" stroke="none" />
        <path d="M242.684 324.487C234.429 322.857 234.262 311.111 242.467 309.247L242.881 309.154C243.48 309.017 243.855 308.421 243.72 307.821C243.583 307.223 242.987 306.847 242.388 306.983L241.974 307.077C231.425 309.473 231.64 324.576 242.253 326.671L253.935 328.976C265.655 331.29 275.345 319.808 271.094 308.644L266.43 296.391C262.851 286.987 249.193 288.143 247.243 298.015L246.232 303.139C246.113 303.743 246.505 304.328 247.109 304.447C247.711 304.566 248.296 304.174 248.416 303.57L249.427 298.446C250.943 290.768 261.566 289.868 264.35 297.184L269.014 309.436C272.643 318.967 264.37 328.768 254.366 326.793L242.684 324.487L242.684 324.487Z" id="Shape" fill="url(#gradient_14)" fill-rule="evenodd" stroke="none" />
        <path d="M323.587 718.884C320.228 694.95 336.908 672.824 360.842 669.466C384.776 666.107 406.901 682.786 410.26 706.72C413.619 730.654 396.94 752.779 373.006 756.138C349.072 759.497 326.946 742.818 323.587 718.884Z" id="Circle" fill="url(#gradient_15)" fill-rule="evenodd" stroke="none" />
        <path d="M506.597 692.748C502.656 664.663 522.229 638.699 550.314 634.758C578.4 630.816 604.364 650.389 608.305 678.475C612.247 706.56 592.674 732.524 564.588 736.465C536.502 740.407 510.539 720.834 506.597 692.748Z" id="Circle" fill="url(#gradient_16)" fill-rule="evenodd" stroke="none" />
        <path d="M378.64 571.373C375.281 547.439 391.96 525.314 415.894 521.955C439.828 518.596 461.954 535.276 465.313 559.21C468.672 583.144 451.992 605.269 428.058 608.628C404.124 611.987 381.999 595.307 378.64 571.373Z" id="Circle" fill="url(#gradient_17)" fill-rule="evenodd" stroke="none" />
        <path d="M138.949 405.707C135.59 381.772 152.27 359.647 176.204 356.288C200.138 352.929 222.263 369.609 225.622 393.543C228.981 417.477 212.301 439.602 188.367 442.961C164.433 446.32 142.308 429.641 138.949 405.707Z" id="Circle" fill="url(#gradient_18)" fill-rule="evenodd" stroke="none" />
        <path d="M164.378 593.326C160.403 564.996 180.145 538.807 208.475 534.831C236.806 530.855 262.995 550.598 266.971 578.928C270.947 607.259 251.204 633.448 222.873 637.424C194.543 641.399 168.354 621.657 164.378 593.326Z" id="Circle" fill="url(#gradient_19)" fill-rule="evenodd" stroke="none" />
        <path d="M155.205 316.807L182.744 313.397C224.994 308.165 263.484 338.174 268.716 380.424L272.126 407.963L244.587 411.373C202.337 416.605 163.846 386.596 158.615 344.346L155.205 316.807L155.205 316.807Z" id="Shape" fill="url(#gradient_20)" stroke="none" />
        <path d="M268.849 408.37L155.368 318.14L155.203 316.808L182.743 313.398C224.992 308.166 263.483 338.175 268.716 380.425L272.126 407.964L268.849 408.37L268.849 408.37Z" id="Shape" fill="#529D6A" fill-opacity="0.5" fill-rule="evenodd" stroke="none" />
        <path d="M218.564 624.685L229.249 599.075C245.64 559.785 290.778 541.221 330.068 557.614L355.679 568.298L344.995 593.909C328.603 633.199 283.464 651.761 244.174 635.37L218.564 624.685L218.564 624.685Z" id="Shape" fill="url(#gradient_21)" stroke="none" />
        <path d="M354.409 571.346L219.803 625.203L218.564 624.686L229.249 599.076C245.64 559.786 290.779 541.222 330.069 557.615L355.68 568.299L354.409 571.346L354.409 571.346Z" id="Shape" fill="#529D6A" fill-opacity="0.5" fill-rule="evenodd" stroke="none" />
        <path d="M507.248 693.808L485.992 675.97C453.38 648.604 449.127 599.983 476.493 567.371L494.33 546.115L515.588 563.953C548.199 591.317 552.452 639.939 525.083 672.55L507.248 693.808L507.248 693.808Z" id="Shape" fill="url(#gradient_22)" stroke="none" />
        <path d="M496.86 548.236L508.113 692.78L507.249 693.808L485.992 675.97C453.381 648.604 449.128 599.983 476.494 567.371L494.331 546.114L496.86 548.236L496.86 548.236Z" id="Shape" fill="#529D6A" fill-opacity="0.5" fill-rule="evenodd" stroke="none" />
        <path d="M560.367 335.292L583.841 320.48C619.842 297.757 667.44 308.522 690.168 344.523L704.981 367.989L681.517 382.801C645.516 405.524 597.908 394.759 575.18 358.758L560.367 335.292L560.367 335.292Z" id="Shape" fill="url(#gradient_23)" stroke="none" />
        <path d="M702.191 369.752L561.084 336.428L560.377 335.293L583.842 320.482C619.842 297.758 667.45 308.523 690.168 344.524L704.981 367.991L702.191 369.752L702.191 369.752Z" id="Shape" fill="#529D6A" fill-opacity="0.5" fill-rule="evenodd" stroke="none" />
        <path d="M327.676 219.78L338.361 194.17C354.753 154.879 399.891 136.316 439.181 152.708L464.792 163.393L454.108 189.003C437.715 228.293 392.577 246.856 353.287 230.464L327.676 219.78L327.676 219.78Z" id="Shape" fill="url(#gradient_24)" stroke="none" />
        <path d="M463.522 166.44L328.915 220.297L327.676 219.781L338.361 194.171C354.753 154.881 399.891 136.317 439.182 152.709L464.793 163.394L463.522 166.44L463.522 166.44Z" id="Shape" fill="#529D6A" fill-opacity="0.5" fill-rule="evenodd" stroke="none" />
        <path d="M814.96 767.597C912.722 677.173 966.055 541.918 946.146 400.052C945.797 397.587 945.439 395.129 945.051 392.681L529.637 468.115C526.091 468.749 524.715 473.102 527.253 475.657L814.96 767.597L814.96 767.597Z" id="Shape" fill="url(#gradient_25)" fill-rule="evenodd" stroke="none" />
        <path d="M776.799 728.78C859.854 651.956 907.229 533.599 890.314 413.07C890.013 410.975 889.2 404.9 888.87 402.819L531.061 466.569C526.1 467.454 524.172 473.541 527.718 477.122L776.799 728.78L776.799 728.78Z" id="Shape" fill="url(#gradient_26)" fill-rule="evenodd" stroke="none" />
        <path d="M765.88 717.235C845.255 643.672 890.517 530.315 874.309 414.86C874.028 412.854 873.311 407.491 873.001 405.497L531.051 466.401C526.091 467.284 524.163 473.376 527.709 476.956L765.88 717.235L765.88 717.235Z" id="Shape" fill="url(#gradient_27)" fill-rule="evenodd" stroke="none" />
        <path d="M704.709 613.541C700.699 584.967 720.81 558.524 749.629 554.479C778.447 550.435 805.06 570.32 809.07 598.895C813.08 627.469 792.969 653.912 764.151 657.956C735.332 662.001 708.719 642.115 704.709 613.541Z" id="Oval" fill="url(#gradient_28)" fill-rule="evenodd" stroke="none" />
        <path d="M813.885 450.329C812.722 446.102 808.643 443.357 804.293 443.865L773.485 447.461C748.878 450.333 729.25 472.14 740.41 494.252C743.908 501.18 748.636 507.968 755.03 513.712C762.838 520.734 772.352 525.193 782.079 527.959C810.106 535.935 829.298 506.273 821.558 478.181L813.885 450.329L813.885 450.329Z" id="Shape" fill="#F5E6D5" stroke="none" />
        <path d="M798.441 498.06C797.163 509.18 781.604 510.655 778.252 499.973L778.087 499.434C777.835 498.653 777.012 498.219 776.227 498.463C775.452 498.708 775.016 499.539 775.258 500.318L775.423 500.857C779.734 514.592 799.73 512.696 801.377 498.398L803.189 482.661C805.01 466.872 788.753 455.248 774.396 462.074L758.653 469.565C746.562 475.315 749.546 493.304 762.848 494.836L769.755 495.63C770.559 495.724 771.296 495.142 771.393 494.329C771.489 493.517 770.898 492.783 770.094 492.689L763.187 491.895C752.84 490.703 750.515 476.712 759.922 472.239L775.675 464.748C787.92 458.92 801.803 468.844 800.253 482.322L798.441 498.06L798.441 498.06Z" id="Shape" fill="url(#gradient_29)" fill-rule="evenodd" stroke="none" />
        <path d="M617.506 506.285C614.147 482.351 630.826 460.226 654.76 456.867C678.694 453.508 700.82 470.187 704.178 494.121C707.537 518.055 690.858 540.181 666.924 543.539C642.99 546.898 620.865 530.219 617.506 506.285Z" id="Circle" fill="url(#gradient_30)" fill-rule="evenodd" stroke="none" />
        <path d="M673.117 462.79L699.294 472.008C739.441 486.15 760.532 530.166 746.388 570.321L737.174 596.495L710.997 587.277C670.84 573.135 649.759 529.119 663.894 488.964L673.117 462.79L673.117 462.79Z" id="Shape" fill="url(#gradient_31)" stroke="none" />
        <path d="M734.055 595.399L672.671 464.057L673.117 462.791L699.294 472.009C739.441 486.152 760.532 530.167 746.388 570.322L737.174 596.496L734.055 595.399L734.055 595.399Z" id="Shape" fill="#529D6A" fill-opacity="0.5" fill-rule="evenodd" stroke="none" />
      </g>
    </g>
    <g id="Chars" transform="translate(233.87695 80.95813)">
      <g id="COOK">
        <g id="LEGS" transform="translate(141.32043 281.48557)">
          <g id="SHOES" transform="translate(0 416.6169)">
            <path d="M214.766 0.636651C214.766 9.90183 221.682 13.2894 221.676 29.7357L147.407 29.7357C147.407 29.7357 146.178 12.7669 164.105 12.2505C179.519 11.8017 190.124 2.06914 189.958 0.636651C189.792 -0.795833 214.766 0.636651 214.766 0.636651L214.766 0.636651Z" id="Shape" fill="#1C0E0C" stroke="none" />
            <path d="M220.201 31.9304L148.434 31.9304C148.042 31.9304 147.667 31.7749 147.39 31.4982C147.114 31.2214 146.958 30.8461 146.958 30.4548L146.958 28.0509L221.676 28.0509L221.676 30.4549C221.677 31.2691 221.016 31.93 220.201 31.9304L220.201 31.9304Z" id="Shape" fill="#F7F3EF" stroke="#070707" stroke-width="4" stroke-linecap="round" stroke-linejoin="round" />
            <path d="M67.8072 0.636651C67.8441 9.90183 74.73 13.2894 74.7238 29.7357L0.454697 29.7357C0.454697 29.7357 -0.811811 12.7669 17.1468 12.2505C32.5662 11.8017 43.1717 2.06914 42.9996 0.636651C42.8274 -0.795833 67.8072 0.636651 67.8072 0.636651L67.8072 0.636651Z" id="Shape" fill="#1C0E0C" stroke="none" />
            <path d="M73.2486 31.9305L1.47554 31.9305C0.66061 31.9305 -1.87625e-05 31.2698 0 30.4549L0 28.051L74.7241 28.051L74.7241 30.4549C74.7241 31.2698 74.0635 31.9305 73.2485 31.9305L73.2486 31.9305Z" id="Shape" fill="#F7F3EF" stroke="#070707" stroke-width="4" stroke-linecap="round" stroke-linejoin="round" />
          </g>
          <path d="M64.2478 0.153703L209.417 0C221.504 68.7174 198 163.46 197.121 175.098C194.661 208.913 210.813 230.056 219.119 264.246C232.644 320.04 229.281 394.069 219.279 422.129L179.931 422.393C178.787 412.723 132.197 220.736 129.916 197.514L116.273 132.135L101.997 191.009C90.7277 225.82 95.7261 225.722 97.3308 260.876C100.085 321.368 89.1107 396.258 72.7814 421.889L28.183 421.207C28.2506 316.302 24.3773 215.042 25.6869 195.35C25.9943 183.041 41.1862 82.7228 64.2478 0.153703L64.2478 0.153703Z" id="PANTS" fill="#F7F3EF" stroke="#070707" stroke-width="4" stroke-linecap="round" stroke-linejoin="round" />
          <path d="M116.273 132.135C114.054 122.79 109.117 85.4095 105.76 83.8294" id="SHADOW" fill="#F7F3EF" stroke="#070707" stroke-width="4" stroke-linecap="round" stroke-linejoin="round" />
        </g>
        <g id="SHIRT" transform="translate(132.42241 78.28444)">
          <path d="M225.865 254.021C225.865 254.021 223.768 106.467 192.732 49.6952C174.669 16.6307 106.573 2.17031 97.3814 1.57395C85.3372 0.79929 63.9541 1.29113 29.0636 12.8065C-1.91055 23.0308 -6.24496 51.0601 7.21324 84.2906C20.6714 117.521 68.9402 203.201 68.9402 203.201C66.9728 218.19 58.1749 256.296 58.1749 256.296C58.1749 256.296 153.643 263.582 225.865 254.021L225.865 254.021Z" id="Shape" fill="#64B581" stroke="#000000" stroke-width="4" stroke-linecap="round" stroke-linejoin="round" />
          <path d="M109.875 3.89176C109.875 3.89176 112.506 28.933 81.3842 46.4797L75.8509 33.083L93.6374 0L109.875 3.89176Z" id="Shape" fill="#1C0E0C" stroke="none" />
          <path d="M18.9562 17.1594C18.9562 17.1594 28.9592 52.056 58.175 54.4108L56.9454 42.7908L40.6713 6.68302L18.9562 17.1594Z" id="Shape" fill="#1C0E0C" stroke="none" />
          <path d="M76.4779 36.4337L84.7286 56.1507C85.5171 59.0157 84.923 62.0845 83.1224 64.4483C81.3218 66.8121 78.521 68.2 75.5495 68.201L45.8111 68.201C42.542 68.2002 39.4923 69.846 37.6984 72.5789C35.9045 75.3119 35.6076 78.7646 36.9087 81.7637L99.3919 220.065C100.855 223.244 96.6007 258.128 96.6007 258.128L146.007 258.128" id="Shape" fill="#64B581" stroke="#000000" stroke-width="4" stroke-linecap="round" stroke-linejoin="round" />
          <path d="M52.4513 92.6274C52.4513 90.0332 54.5543 87.9302 57.1485 87.9302C59.7426 87.9302 61.8456 90.0332 61.8456 92.6274C61.8456 95.2216 59.7426 97.3245 57.1485 97.3245C54.5543 97.3245 52.4513 95.2216 52.4513 92.6274Z" id="Circle" fill="#F7F3EF" fill-rule="evenodd" stroke="#070707" stroke-width="4" stroke-linecap="round" stroke-linejoin="round" />
          <path d="M77.8056 92.6274C77.8056 90.0332 79.9086 87.9302 82.5027 87.9302C85.0969 87.9302 87.1999 90.0332 87.1999 92.6274C87.1999 95.2216 85.0969 97.3245 82.5027 97.3245C79.9086 97.3245 77.8056 95.2216 77.8056 92.6274Z" id="Circle" fill="#F7F3EF" fill-rule="evenodd" stroke="#070707" stroke-width="4" stroke-linecap="round" stroke-linejoin="round" />
          <path d="M65.2822 125.175C65.2822 122.581 67.3851 120.478 69.9793 120.478C72.5735 120.478 74.6765 122.581 74.6765 125.175C74.6765 127.77 72.5735 129.873 69.9793 129.873C67.3851 129.873 65.2822 127.77 65.2822 125.175Z" id="Circle" fill="#F7F3EF" fill-rule="evenodd" stroke="#070707" stroke-width="4" stroke-linecap="round" stroke-linejoin="round" />
          <path d="M90.6369 125.175C90.6369 122.581 92.7399 120.478 95.334 120.478C97.9282 120.478 100.031 122.581 100.031 125.175C100.031 127.77 97.9282 129.873 95.334 129.873C92.7399 129.873 90.6369 127.77 90.6369 125.175Z" id="Circle" fill="#F7F3EF" fill-rule="evenodd" stroke="#070707" stroke-width="4" stroke-linecap="round" stroke-linejoin="round" />
          <path d="M79.0105 158.191C79.0105 155.651 81.0695 153.592 83.6093 153.592C86.1491 153.592 88.2081 155.651 88.2081 158.191C88.2081 160.731 86.1491 162.79 83.6093 162.79C81.0695 162.79 79.0105 160.731 79.0105 158.191Z" id="Circle" fill="#F7F3EF" fill-rule="evenodd" stroke="#070707" stroke-width="4" stroke-linecap="round" stroke-linejoin="round" />
          <path d="M102.03 157.89C102.03 155.35 104.089 153.291 106.628 153.291C109.168 153.291 111.227 155.35 111.227 157.89C111.227 160.429 109.168 162.488 106.628 162.488C104.089 162.488 102.03 160.429 102.03 157.89Z" id="Circle" fill="#F7F3EF" fill-rule="evenodd" stroke="#070707" stroke-width="4" stroke-linecap="round" stroke-linejoin="round" />
        </g>
        <g id="LEFT_HAND" transform="translate(0 95.443825)">
          <path d="M151.379 0C138.536 4.91849 118.419 15.7945 113.162 31.2877C107.906 46.7809 94.6073 89.166 94.6073 89.166C94.6073 89.166 72.5786 68.6744 68.4225 62.3541C68.4225 62.3541 67.2974 75.1114 40.9405 75.6709C40.9405 75.6709 55.3762 176.272 109.184 178.676C130.445 179.629 151.957 151.01 154.982 99.7407L151.379 0Z" id="HAND" fill="#64B581" stroke="#000000" stroke-width="4" stroke-linecap="round" stroke-linejoin="round" />
          <path d="M93.353 86.3317C99.1691 93.3774 111.797 112.394 117.755 126.104" id="LINE" fill="#F7F3EF" stroke="#070707" stroke-width="4" stroke-linecap="round" stroke-linejoin="round" />
          <g id="ARM" transform="translate(3.0802987 32.408356)">
            <path d="M66.4427 31.2491C66.4427 31.2491 52.0131 5.59925 40.6821 0.231942C36.9933 -1.53256 17.1902 7.28382 15.4749 9.33113C13.7596 11.3784 9.51739 27.6095 9.51739 27.6095C9.51739 27.6095 16.2004 29.3924 18.6596 24.5784C21.5 19.0452 26.3939 13.2905 32.8495 15.0858C36.5383 16.1186 44.3772 25.3777 40.9957 27.6095C37.6142 29.8412 32.4621 23.3058 27.599 22.1684C22.7358 21.031 19.1945 24.6276 19.1945 24.6276C19.1945 24.6276 26.2464 28.1013 29.1114 34.1695C30.8083 37.7477 34.8046 44.7688 45.4961 42.8814C59.4216 40.4283 66.4427 31.2491 66.4427 31.2491L66.4427 31.2491Z" id="Shape" fill="#C48270" stroke="#0F0F0F" stroke-width="4" stroke-linecap="round" stroke-linejoin="round" />
            <path d="M15.4625 9.33116C15.4625 9.33116 8.20773 15.8051 0 19.2542C0 19.2542 2.25635 25.6728 11.2572 21.2523L15.4625 9.33116Z" id="Shape" fill="#1C0E0C" stroke="none" />
          </g>
          <path d="M40.645 75.3512C40.645 75.3512 60.319 75.0745 69.5411 63.6698L77.2201 72.5661C77.2201 72.5661 67.168 88.3913 42.8399 87.7274L40.645 75.3512Z" id="CUFF" fill="#64B581" stroke="#000000" stroke-width="4" stroke-linecap="round" stroke-linejoin="round" />
          <path d="M25.1704 69.5105C25.4491 70.3551 26.3595 70.814 27.2042 70.5356C28.0489 70.2573 28.5081 69.347 28.2301 68.5022C27.9521 67.6574 27.042 67.1978 26.1971 67.4755C25.7909 67.609 25.4545 67.8985 25.2619 68.2802C25.0693 68.6619 25.0364 69.1045 25.1704 69.5105L25.1704 69.5105ZM9.17917 85.8399C9.40428 86.5154 10.1338 86.8812 10.8098 86.6574C11.4858 86.4336 11.853 85.7047 11.6305 85.0283C11.408 84.3519 10.6799 83.9833 10.003 84.2045C9.67629 84.3112 9.40564 84.5439 9.25099 84.8508C9.09635 85.1578 9.07051 85.5138 9.17917 85.8399L9.17917 85.8399ZM15.1182 119.249C15.3231 119.87 15.8822 120.307 16.5346 120.355C17.1871 120.403 17.8043 120.053 18.0983 119.469C18.3923 118.884 18.3051 118.18 17.8774 117.685C17.4498 117.19 16.7659 117.002 16.1449 117.208C15.3006 117.491 14.8425 118.402 15.1182 119.249L15.1182 119.249ZM28.5704 123.405C28.8778 124.337 29.8823 124.843 30.8142 124.536C31.7461 124.228 32.2525 123.224 31.9453 122.292C31.6381 121.36 30.6336 120.854 29.7017 121.161C29.2541 121.308 28.8834 121.628 28.6712 122.048C28.4591 122.469 28.4228 122.957 28.5704 123.405L28.5704 123.405ZM20.1659 149.079C21.0082 149.575 22.0925 149.297 22.5928 148.457C23.0931 147.618 22.8216 146.532 21.9852 146.027C21.1487 145.522 20.0612 145.787 19.5511 146.62C19.3005 147.026 19.2245 147.516 19.3402 147.979C19.4559 148.442 19.7537 148.839 20.1659 149.079L20.1659 149.079ZM14.4788 140.171C15.4903 139.829 16.0346 138.733 15.6957 137.721C15.3567 136.709 14.2624 136.161 13.2492 136.498C12.2359 136.834 11.6859 137.927 12.0195 138.941C12.1823 139.43 12.5329 139.835 12.9943 140.066C13.4555 140.296 13.9896 140.334 14.4788 140.171L14.4788 140.171ZM27.6788 105.864C27.9047 106.547 28.5197 107.026 29.2368 107.078C29.9538 107.13 30.6317 106.745 30.9539 106.102C31.2761 105.46 31.1793 104.686 30.7085 104.143C30.2378 103.599 29.486 103.393 28.8039 103.62C27.8742 103.93 27.3708 104.934 27.6788 105.864L27.6788 105.864ZM24.4077 88.047C24.6106 88.6698 25.1691 89.1086 25.8221 89.1585C26.4751 89.2083 27.0938 88.8593 27.3888 88.2745C27.6838 87.6898 27.5969 86.9849 27.1688 86.4892C26.7407 85.9936 26.0559 85.8052 25.4345 86.012C25.0283 86.1455 24.6918 86.435 24.4993 86.8167C24.3067 87.1984 24.2738 87.641 24.4077 88.047L24.4077 88.047ZM17.4729 93.3221C17.6839 93.9625 18.26 94.4126 18.9324 94.4623C19.6048 94.512 20.2409 94.1516 20.5438 93.5493C20.8467 92.947 20.7568 92.2214 20.3159 91.7113C19.8751 91.2011 19.1702 91.007 18.5303 91.2194C17.6584 91.5089 17.1854 92.4495 17.4729 93.3221L17.4729 93.3221ZM18.8992 82.5076C19.1102 83.148 19.6863 83.5981 20.3587 83.6478C21.0311 83.6976 21.6672 83.3371 21.9702 82.7348C22.2731 82.1325 22.1831 81.4069 21.7423 80.8968C21.3014 80.3866 20.5966 80.1925 19.9567 80.4049C19.0848 80.6944 18.6117 81.635 18.8992 82.5076L18.8992 82.5076ZM14.8907 103.657C15.1017 104.297 15.6778 104.748 16.3502 104.797C17.0226 104.847 17.6587 104.487 17.9616 103.884C18.2646 103.282 18.1746 102.556 17.7338 102.046C17.2929 101.536 16.5881 101.342 15.9482 101.554C15.0762 101.844 14.6032 102.785 14.8907 103.657L14.8907 103.657ZM21.7397 133.371C21.9507 134.011 22.5268 134.461 23.1992 134.511C23.8716 134.561 24.5077 134.2 24.8106 133.598C25.1135 132.996 25.0236 132.27 24.5827 131.76C24.1419 131.25 23.437 131.056 22.7971 131.268C21.9252 131.558 21.4522 132.498 21.7397 133.371L21.7397 133.371ZM13.9869 166.306C14.1979 166.947 14.7741 167.397 15.4464 167.446C16.1188 167.496 16.7549 167.136 17.0579 166.533C17.3608 165.931 17.2708 165.206 16.83 164.695C16.3891 164.185 15.6843 163.991 15.0444 164.204C14.1725 164.493 13.6994 165.434 13.9869 166.306L13.9869 166.306ZM26.0865 152.541C26.2975 153.181 26.8736 153.631 27.546 153.681C28.2184 153.731 28.8545 153.37 29.1574 152.768C29.4604 152.166 29.3704 151.44 28.9296 150.93C28.4887 150.42 27.7839 150.226 27.144 150.438C26.2721 150.727 25.799 151.668 26.0865 152.541L26.0865 152.541ZM4.13765 152.073C4.13765 151.153 4.88361 150.407 5.80379 150.407C6.72397 150.407 7.46993 151.153 7.46993 152.073C7.46993 152.994 6.72397 153.74 5.80379 153.74C4.88361 153.74 4.13765 152.994 4.13765 152.073ZM37.7617 152.264C37.9727 152.904 38.5489 153.354 39.2212 153.404C39.8936 153.454 40.5297 153.094 40.8327 152.491C41.1356 151.889 41.0457 151.163 40.6048 150.653C40.1639 150.143 39.4591 149.949 38.8192 150.161C37.9473 150.451 37.4742 151.391 37.7617 152.264L37.7617 152.264ZM21.8504 111.853C22.0613 112.493 22.6375 112.943 23.3099 112.993C23.9823 113.042 24.6184 112.682 24.9213 112.08C25.2242 111.477 25.1343 110.752 24.6934 110.242C24.2526 109.732 23.5477 109.537 22.9078 109.75C22.0359 110.039 21.5629 110.98 21.8504 111.853L21.8504 111.853ZM6.63983 125.274C6.85081 125.914 7.42695 126.364 8.09935 126.414C8.77174 126.464 9.40784 126.103 9.71078 125.501C10.0137 124.899 9.92375 124.173 9.4829 123.663C9.04204 123.153 8.33719 122.959 7.6973 123.171C6.82539 123.461 6.35233 124.401 6.63983 125.274L6.63983 125.274ZM34.0911 128.422C34.302 129.062 34.8782 129.512 35.5506 129.562C36.223 129.612 36.8591 129.251 37.162 128.649C37.4649 128.047 37.375 127.321 36.9341 126.811C36.4933 126.301 35.7884 126.107 35.1485 126.319C34.2766 126.608 33.8036 127.549 34.0911 128.422L34.0911 128.422ZM21.5614 64.426C21.7013 64.8543 22.0857 65.1559 22.535 65.1899C22.9843 65.224 23.4098 64.9838 23.6127 64.5815C23.8156 64.1792 23.7559 63.6942 23.4615 63.3531C23.167 63.0121 22.696 62.8822 22.2684 63.0242C21.6871 63.2173 21.3711 63.8438 21.5614 64.426L21.5614 64.426ZM25.8713 98.2714C26.0653 98.8505 26.6918 99.1631 27.2711 98.9697C27.8505 98.7762 28.1636 98.15 27.9707 97.5705C27.7778 96.9909 27.1519 96.6773 26.5722 96.8696C26.2931 96.9622 26.0624 97.1621 25.9309 97.425C25.7994 97.688 25.7779 97.9925 25.8713 98.2714L25.8713 98.2714ZM25.8713 98.2714C26.0653 98.8505 26.6918 99.1631 27.2711 98.9697C27.8505 98.7762 28.1636 98.15 27.9707 97.5705C27.7778 96.9909 27.1519 96.6773 26.5722 96.8696C26.2931 96.9622 26.0624 97.1621 25.9309 97.425C25.7994 97.688 25.7779 97.9925 25.8713 98.2714L25.8713 98.2714ZM27.076 115.295C27.216 115.724 27.6004 116.025 28.0497 116.059C28.4989 116.093 28.9244 115.853 29.1273 115.451C29.3302 115.049 29.2705 114.564 28.9761 114.223C28.6817 113.882 28.2106 113.752 27.783 113.894C27.2017 114.087 26.8857 114.713 27.076 115.295L27.076 115.295ZM10.4641 108.004C10.4641 107.393 10.9595 106.897 11.5707 106.897C12.1819 106.897 12.6774 107.393 12.6774 108.004C12.6774 108.615 12.1819 109.11 11.5707 109.11C10.9595 109.11 10.4641 108.615 10.4641 108.004ZM8.72445 116.199C8.91496 116.778 9.53737 117.094 10.1169 116.906C10.6965 116.718 11.0151 116.097 10.8299 115.517C10.6446 114.936 10.025 114.615 9.44378 114.797C9.16133 114.886 8.92622 115.085 8.79105 115.348C8.65586 115.611 8.63188 115.918 8.72446 116.199L8.72445 116.199ZM26.8978 143.472C27.0917 144.051 27.7182 144.364 28.2976 144.171C28.8769 143.977 29.1901 143.351 28.9972 142.771C28.8043 142.192 28.1784 141.878 27.5986 142.07C27.3196 142.163 27.0888 142.363 26.9573 142.626C26.8258 142.889 26.8044 143.193 26.8978 143.472L26.8978 143.472ZM37.1835 139.642C37.3235 140.07 37.7079 140.372 38.1572 140.406C38.6065 140.44 39.0319 140.2 39.2349 139.797C39.4378 139.395 39.3781 138.91 39.0836 138.569C38.7892 138.228 38.3182 138.098 37.8906 138.24C37.3093 138.433 36.9933 139.06 37.1835 139.642L37.1835 139.642ZM12.5668 154.693C12.7067 155.121 13.0912 155.422 13.5404 155.456C13.9897 155.491 14.4152 155.25 14.6181 154.848C14.821 154.446 14.7613 153.961 14.4669 153.62C14.1725 153.279 13.7014 153.149 13.2738 153.291C12.6925 153.484 12.3765 154.11 12.5668 154.693L12.5668 154.693ZM23.5866 160.065C22.9825 159.973 22.5679 159.408 22.6607 158.804C22.7535 158.199 23.3184 157.785 23.9225 157.878C24.5266 157.97 24.9411 158.535 24.8484 159.139C24.7556 159.744 24.1907 160.158 23.5866 160.065ZM4.29149 143.509C4.48545 144.088 5.11197 144.401 5.69133 144.207C6.27068 144.014 6.5838 143.388 6.39091 142.808C6.19803 142.229 5.5721 141.915 4.99239 142.107C4.7133 142.2 4.48255 142.4 4.35105 142.663C4.21955 142.926 4.19812 143.23 4.29149 143.509L4.29149 143.509ZM41.6412 145.686C41.834 146.265 42.4591 146.578 43.0386 146.387C43.618 146.195 43.933 145.571 43.7426 144.991C43.5523 144.411 42.9284 144.095 42.3482 144.284C42.068 144.375 41.8358 144.574 41.7031 144.838C41.5704 145.101 41.5481 145.406 41.6412 145.686L41.6412 145.686ZM31.5767 157.57C31.7166 157.998 32.101 158.3 32.5503 158.334C32.9996 158.368 33.4251 158.128 33.628 157.725C33.8309 157.323 33.7712 156.838 33.4768 156.497C33.1823 156.156 32.7113 156.026 32.2837 156.168C31.7024 156.361 31.3864 156.988 31.5767 157.57L31.5767 157.57ZM28.9996 170.837C28.3955 170.744 27.981 170.179 28.0737 169.575C28.1665 168.971 28.7314 168.556 29.3355 168.649C29.9396 168.742 30.3542 169.307 30.2614 169.911C30.1686 170.515 29.6037 170.929 28.9996 170.837ZM38.4012 163.232C38.5411 163.661 38.9256 163.962 39.3748 163.996C39.8241 164.03 40.2496 163.79 40.4525 163.388C40.6554 162.985 40.5957 162.501 40.3013 162.159C40.0069 161.818 39.5358 161.689 39.1082 161.831C38.5269 162.024 38.2109 162.65 38.4012 163.232L38.4012 163.232ZM9.08073 162.261C9.22069 162.689 9.60511 162.991 10.0544 163.025C10.5037 163.059 10.9291 162.819 11.1321 162.416C11.335 162.014 11.2753 161.529 10.9808 161.188C10.6864 160.847 10.2154 160.717 9.78776 160.859C9.50755 160.95 9.27535 161.15 9.14263 161.413C9.00991 161.676 8.98763 161.981 9.08073 162.261L9.08073 162.261ZM0.0553401 168.544C0.195299 168.973 0.579715 169.274 1.029 169.308C1.47828 169.342 1.90376 169.102 2.10668 168.7C2.30958 168.297 2.24988 167.812 1.95545 167.471C1.66102 167.13 1.18998 167 0.762369 167.142C0.181087 167.336 -0.134912 167.962 0.0553401 168.544L0.0553401 168.544ZM11.6569 179.912C11.7969 180.34 12.1813 180.642 12.6306 180.676C13.0799 180.71 13.5053 180.47 13.7082 180.068C13.9111 179.665 13.8514 179.18 13.557 178.839C13.2626 178.498 12.7915 178.368 12.3639 178.51C12.0837 178.602 11.8515 178.801 11.7188 179.064C11.5861 179.327 11.5638 179.632 11.6569 179.912L11.6569 179.912ZM13.3045 126.516C13.4985 127.095 14.125 127.407 14.7044 127.214C15.2837 127.021 15.5968 126.394 15.4039 125.815C15.2111 125.235 14.5851 124.922 14.0054 125.114C13.7263 125.207 13.4956 125.406 13.3641 125.669C13.2326 125.932 13.2112 126.237 13.3045 126.516L13.3045 126.516ZM28.281 138.64C28.281 138.029 28.7764 137.533 29.3876 137.533C29.9988 137.533 30.4943 138.029 30.4943 138.64C30.4943 139.251 29.9988 139.746 29.3876 139.746C28.7764 139.746 28.281 139.251 28.281 138.64ZM24.4387 127.229C24.5787 127.657 24.9631 127.959 25.4124 127.993C25.8617 128.027 26.2871 127.787 26.4901 127.384C26.693 126.982 26.6333 126.497 26.3388 126.156C26.0444 125.815 25.5734 125.685 25.1457 125.827C24.5645 126.02 24.2485 126.647 24.4387 127.229L24.4387 127.229Z" id="SPICE" fill="#F7F3EF" fill-rule="evenodd" stroke="#070707" stroke-width="4" stroke-linecap="round" stroke-linejoin="round" />
        </g>
        <g id="HEAD" transform="translate(135.02231 0)">
          <path d="M21.7607 70.3042C20.9922 69.4312 20.8201 88.0907 23.7835 101.549C29.2246 126.246 46.7282 131.589 50.1097 131.841C69.7221 133.279 83.7706 112.382 83.8382 105.582C83.9058 98.7822 83.7521 93.7408 83.7521 93.7408C83.7521 93.7408 97.2103 86.0003 90.7241 78.2845C86.5925 73.3783 58.1452 61.4817 21.7607 70.3042L21.7607 70.3042Z" id="HEAD-2" fill="#C48270" stroke="#0F0F0F" stroke-width="4" stroke-linecap="round" stroke-linejoin="round" />
          <g id="CAP">
            <path d="M21.7609 70.3042L17.5617 52.1304C17.5617 52.1304 49.0585 37.295 93.4416 60.873L90.7242 78.2845C90.7242 78.2845 62.3015 61.5063 21.7609 70.3042L21.7609 70.3042Z" id="Shape" fill="#F7F3EF" stroke="#070707" stroke-width="4" stroke-linecap="round" stroke-linejoin="round" />
            <path d="M4.1462 40.5474C8.24084 48.4354 15.4895 53.0772 17.5798 52.1304C28.8493 47.0336 44.8651 47.4578 50.2754 47.7775C71.2282 70.9375 123.438 105.834 119.485 59.8709C115.538 13.6678 33.2206 -12.9781 8.91096 6.38233C4.40443 9.97283 -5.65388 21.7219 4.1462 40.5474L4.1462 40.5474Z" id="Shape" fill="#F7F3EF" stroke="#070707" stroke-width="4" stroke-linecap="round" stroke-linejoin="round" />
            <path d="M112.285 82.2377C91.8546 83.498 66.2293 63.9532 51.4185 48.6444C51.4185 48.6444 51.4185 48.6444 51.3878 48.6137L51.0496 48.3001C40.1245 38.0205 26.7892 12.4136 0.63518 22.2752" id="Shape" fill="none" stroke="#070707" stroke-width="4" stroke-linecap="round" stroke-linejoin="round" />
          </g>
          <path d="M52.8942 68.0356C52.8942 68.0356 33.7675 85.3732 19.2457 78.8439C3.0577 71.5707 16.8417 60.0861 20.6843 65.6747C25.8057 73.1016 35.5012 65.5087 52.8942 68.0356L52.8942 68.0356ZM66.0205 69.7693C66.0205 69.7693 73.3982 70.5563 75.6669 79.6063C77.9355 88.6563 82.7434 83.8423 82.7434 83.8423C82.7434 83.8423 83.143 74.6939 85.4793 75.7514C79.3651 72.7034 72.791 70.6824 66.0205 69.7693L66.0205 69.7693Z" id="HAIR" fill="#1C0E0C" fill-rule="evenodd" stroke="none" />
        </g>
      </g>
      <g id="COOK_S_RIGHT_HAND" transform="translate(112.37507 123.867805)">
        <path d="M218.922 28.8952C219.217 43.3618 208.587 141.03 193.672 154.319C178.418 167.874 112.252 177.085 59.5998 181.737C59.5998 181.737 64.0633 160.967 44.125 157.529C44.125 157.529 116.408 123.741 135.517 121.948C135.517 121.948 151.397 40.8727 161.578 22.5923C177.361 -5.76169 218.092 -11.3992 218.922 28.8952L218.922 28.8952Z" id="HAND-2" fill="#64B581" stroke="none" />
        <path d="M76.1018 142.015C97.9398 133.538 128.416 122.916 138.96 121.93C138.96 121.93 147.02 51.4823 157.201 33.2081M224.185 28.2236C225.605 73.8722 207.948 145.429 187.911 160.129C181.763 164.658 82.5753 180.104 75.9599 180.572" id="LINES" fill="none" fill-rule="evenodd" stroke="#000000" stroke-width="4" stroke-linecap="round" stroke-linejoin="round" />
        <path d="M59.5198 181.306C55.9109 184.608 37.1653 197.066 27.5497 198.834C21.5122 199.949 10.4456 196.031 9.10534 195.205C7.76506 194.38 0 184.066 0 184.066C0 184.066 4.48198 179.617 9.44348 183.819C15.8191 189.229 21.961 186.506 25.9512 183.148C27.6112 181.749 29.5908 177.948 27.3222 176.007C25.0535 174.066 19.053 179.211 16.5814 179.402C11.5584 179.79 10.0952 177.368 10.0952 177.368C10.0952 177.368 20.215 167.511 22.2316 166.032C24.2481 164.553 36.1693 157.529 46.824 157.683C55.3268 157.807 67.8812 173.641 59.5198 181.306L59.5198 181.306Z" id="ARM-2" fill="#C48270" stroke="#0F0F0F" stroke-width="4" stroke-linecap="round" stroke-linejoin="round" />
        <path d="M44.125 157.529L57.534 151.417C57.534 151.417 74.8163 157.702 75.9783 181.484L59.6059 181.737C59.6059 181.737 57.0237 163.247 44.125 157.529L44.125 157.529Z" id="CUFF-2" fill="#64B581" stroke="#000000" stroke-width="4" stroke-linecap="round" stroke-linejoin="round" />
      </g>
      <path d="M211.575 84.3526C211.575 79.952 215.142 76.3847 219.543 76.3847C223.944 76.3847 227.511 79.952 227.511 84.3526C227.511 88.7532 223.944 92.3206 219.543 92.3206C215.142 92.3206 211.575 88.7532 211.575 84.3526Z" id="Circle" fill="#C48270" fill-rule="evenodd" stroke="none" />
      <path d="M214.384 86.9287C214.384 86.9287 216.776 79.9321 221.694 80.2949" id="Shape" fill="none" stroke="#070707" stroke-width="4" stroke-linecap="round" stroke-linejoin="round" />
      <path d="M217.766 83.8177L220.502 85.7913" id="Line" fill="none" fill-rule="evenodd" stroke="#070707" stroke-width="4" stroke-linecap="round" stroke-linejoin="round" />
      <path d="M176.278 87.7464L172.331 101.69L180.662 106.043" id="Polygon" fill="none" fill-rule="evenodd" stroke="#070707" stroke-width="4" stroke-linecap="round" stroke-linejoin="round" />
      <path d="M186.361 86.9287C186.361 85.3226 187.407 84.0206 188.697 84.0206C189.988 84.0206 191.034 85.3226 191.034 86.9287C191.034 88.5348 189.988 89.8368 188.697 89.8368C187.407 89.8368 186.361 88.5348 186.361 86.9287Z" id="Oval" fill="#070707" fill-rule="evenodd" stroke="none" />
      <path d="M164.247 91.091C164.247 89.4849 165.293 88.1829 166.583 88.1829C167.873 88.1829 168.919 89.4849 168.919 91.091C168.919 92.6971 167.873 93.999 166.583 93.999C165.293 93.999 164.247 92.6971 164.247 91.091Z" id="Oval" fill="#070707" fill-rule="evenodd" stroke="none" />
      <path d="M179.045 115.376C185.611 117.253 192.492 113.635 194.668 107.162" id="Shape" fill="none" stroke="#0F0F0F" stroke-width="4" stroke-linecap="round" stroke-linejoin="round" />
    </g>
  </g>
</svg>