<?xml version="1.0" encoding="utf-8"?>
<svg width="900px" height="900.0001px" viewBox="0 0 900 900.0001" version="1.1" xmlns:xlink="http://www.w3.org/1999/xlink" xmlns="http://www.w3.org/2000/svg">
  <defs>
    <linearGradient gradientUnits="userSpaceOnUse" x1="450.00006" y1="0" x2="450.00006" y2="900.0001" id="gradient_1">
      <stop offset="0%" stop-color="#64626F" />
      <stop offset="100%" stop-color="#64626F" stop-opacity="0.34117648" />
    </linearGradient>
    <radialGradient gradientUnits="objectBoundingBox" cx="48.142914%" cy="39.428593%" fx="48.142914%" fy="39.428593%" r="74.73735%" gradientTransform="translate(0.48142913,0.39428592),scale(1,0.9999998),rotate(88.576096),scale(1,0.88558775),translate(-0.48142913,-0.39428592)" id="gradient_2">
      <stop offset="0%" stop-color="#F7C97C" />
      <stop offset="100%" stop-color="#D55561" />
    </radialGradient>
    <linearGradient gradientUnits="userSpaceOnUse" x1="72.755486" y1="144.95203" x2="5.688465" y2="19.471027" id="gradient_3">
      <stop offset="0%" stop-color="#64B581" />
      <stop offset="100%" stop-color="#8DE691" />
    </linearGradient>
    <linearGradient gradientUnits="userSpaceOnUse" x1="90.805984" y1="72.48538" x2="-0.56002283" y2="27.492365" id="gradient_4">
      <stop offset="0%" stop-color="#64B581" />
      <stop offset="100%" stop-color="#8DE691" />
    </linearGradient>
    <linearGradient gradientUnits="userSpaceOnUse" x1="40.02486" y1="48.677868" x2="86.538826" y2="143.86983" id="gradient_5">
      <stop offset="0%" stop-color="#C4CC57" />
      <stop offset="100%" stop-color="#DBE272" />
    </linearGradient>
    <linearGradient gradientUnits="userSpaceOnUse" x1="241.22488" y1="120.07272" x2="215.2639" y2="-18.389292" id="gradient_6">
      <stop offset="0%" stop-color="#D55561" />
      <stop offset="100%" stop-color="#EB8B75" />
    </linearGradient>
    <linearGradient gradientUnits="userSpaceOnUse" x1="73.15293" y1="127.61996" x2="-17.308054" y2="54.087006" id="gradient_7">
      <stop offset="0%" stop-color="#C14752" />
      <stop offset="100%" stop-color="#C14752" stop-opacity="0" />
    </linearGradient>
    <linearGradient gradientUnits="userSpaceOnUse" x1="49.215206" y1="59.39248" x2="19.109188" y2="-12.405628" id="gradient_8">
      <stop offset="0%" stop-color="#C14752" />
      <stop offset="100%" stop-color="#C14752" stop-opacity="0" />
    </linearGradient>
    <linearGradient gradientUnits="userSpaceOnUse" x1="254.60983" y1="152.54874" x2="226.48978" y2="21.658756" id="gradient_9">
      <stop offset="0%" stop-color="#D55561" />
      <stop offset="100%" stop-color="#EB8B75" />
    </linearGradient>
    <linearGradient gradientUnits="userSpaceOnUse" x1="120.072975" y1="166.58694" x2="-17.307007" y2="54.08698" id="gradient_10">
      <stop offset="0%" stop-color="#C14752" />
      <stop offset="100%" stop-color="#C14752" stop-opacity="0" />
    </linearGradient>
    <linearGradient gradientUnits="userSpaceOnUse" x1="138.34668" y1="88.25835" x2="70.23273" y2="-44.355667" id="gradient_11">
      <stop offset="0%" stop-color="#C14752" />
      <stop offset="100%" stop-color="#C14752" stop-opacity="0" />
    </linearGradient>
    <linearGradient gradientUnits="userSpaceOnUse" x1="27.261982" y1="82.751" x2="111.75898" y2="-5.4599714" id="gradient_12">
      <stop offset="0%" stop-color="#64B581" />
      <stop offset="100%" stop-color="#8DE691" />
    </linearGradient>
    <linearGradient gradientUnits="userSpaceOnUse" x1="31.536592" y1="125.37797" x2="43.51661" y2="8.0600195" id="gradient_13">
      <stop offset="43.8968%" stop-color="#A58F78" />
      <stop offset="100%" stop-color="#CFBDAA" />
    </linearGradient>
    <linearGradient gradientUnits="userSpaceOnUse" x1="95.25296" y1="67.75886" x2="76.4429" y2="-12.616152" id="gradient_14">
      <stop offset="0%" stop-color="#A58F78" />
      <stop offset="100%" stop-color="#F5E6D5" />
    </linearGradient>
    <linearGradient gradientUnits="userSpaceOnUse" x1="61.44087" y1="125.79138" x2="52.180923" y2="8.225379" id="gradient_15">
      <stop offset="43.8968%" stop-color="#A58F78" />
      <stop offset="100%" stop-color="#CFBDAA" />
    </linearGradient>
    <linearGradient gradientUnits="userSpaceOnUse" x1="-37.725784" y1="66.058044" x2="-17.059837" y2="-13.857962" id="gradient_16">
      <stop offset="0%" stop-color="#A58F78" />
      <stop offset="100%" stop-color="#F5E6D5" />
    </linearGradient>
    <linearGradient gradientUnits="userSpaceOnUse" x1="61.440857" y1="125.791405" x2="52.182877" y2="8.22538" id="gradient_17">
      <stop offset="43.8968%" stop-color="#A58F78" />
      <stop offset="100%" stop-color="#CFBDAA" />
    </linearGradient>
    <linearGradient gradientUnits="userSpaceOnUse" x1="-37.726677" y1="66.05807" x2="-17.060642" y2="-13.857919" id="gradient_18">
      <stop offset="0%" stop-color="#A58F78" />
      <stop offset="100%" stop-color="#F5E6D5" />
    </linearGradient>
  </defs>
  <g id="Group">
    <path d="M900 450C900 698.528 698.53 900 450 900C201.471 900 0 698.528 0 450C0 201.472 201.471 0 450 0C698.53 0 900 201.472 900 450L900 450Z" id="Forma" fill="#323138" stroke="none" />
    <path d="M450 888.979C692.44 888.979 888.98 692.441 888.98 450C888.98 207.559 692.44 11.021 450 11.021C207.558 11.021 11.021 207.559 11.021 450C11.021 692.441 207.558 888.979 450 888.979L450 888.979ZM450 900C698.53 900 900 698.528 900 450C900 201.472 698.53 0 450 0C201.471 0 0 201.472 0 450C0 698.528 201.471 900 450 900L450 900Z" id="Forma" fill="url(#gradient_1)" fill-rule="evenodd" stroke="none" />
    <path d="M82.2111 450C82.2111 240.902 251.719 71.394 460.817 71.394C669.915 71.394 839.423 240.902 839.423 450C839.423 659.098 669.915 828.606 460.817 828.606C251.719 828.606 82.2111 659.098 82.2111 450Z" id="Círculo" fill="url(#gradient_2)" fill-rule="evenodd" stroke="none" />
    <path d="M255.289 676.082C255.289 682.654 260.616 687.981 267.188 687.981C273.76 687.981 279.087 682.654 279.087 676.082C279.087 669.51 273.76 664.183 267.188 664.183C260.616 664.183 255.289 669.51 255.289 676.082Z" id="Círculo" fill="#D55561" fill-rule="evenodd" stroke="none" />
    <path d="M597.111 715.024C597.111 721.596 602.438 726.923 609.01 726.923C615.582 726.923 620.909 721.596 620.909 715.024C620.909 708.452 615.582 703.125 609.01 703.125C602.438 703.125 597.111 708.452 597.111 715.024Z" id="Círculo" fill="#D55561" fill-rule="evenodd" stroke="none" />
    <path d="M612.26 636.058C612.26 639.643 615.166 642.548 618.75 642.548C622.335 642.548 625.24 639.643 625.24 636.058C625.24 632.474 622.335 629.568 618.75 629.568C615.166 629.568 612.26 632.474 612.26 636.058Z" id="Círculo" fill="#D55561" fill-rule="evenodd" stroke="none" />
    <path d="M662.02 196.875C662.02 200.459 664.926 203.365 668.51 203.365C672.095 203.365 675 200.459 675 196.875C675 193.29 672.095 190.385 668.51 190.385C664.926 190.385 662.02 193.29 662.02 196.875Z" id="Círculo" fill="#D55561" fill-rule="evenodd" stroke="none" />
    <path d="M768.03 365.625C768.03 369.21 770.936 372.115 774.52 372.115C778.105 372.115 781.01 369.21 781.01 365.625C781.01 362.04 778.105 359.135 774.52 359.135C770.936 359.135 768.03 362.04 768.03 365.625Z" id="Círculo" fill="#EEAB75" fill-rule="evenodd" stroke="none" />
    <path d="M127.644 341.827C127.644 345.412 130.549 348.317 134.134 348.317C137.718 348.317 140.624 345.412 140.624 341.827C140.624 338.243 137.718 335.337 134.134 335.337C130.549 335.337 127.644 338.243 127.644 341.827Z" id="Círculo" fill="#EEAB75" fill-rule="evenodd" stroke="none" />
    <path d="M413.221 173.077C413.221 176.661 416.126 179.567 419.711 179.567C423.296 179.567 426.201 176.661 426.201 173.077C426.201 169.492 423.296 166.586 419.711 166.586C416.126 166.586 413.221 169.492 413.221 173.077Z" id="Círculo" fill="#D55561" fill-rule="evenodd" stroke="none" />
    <path d="M166.375 192.548L202.833 206.237C258.763 227.237 287.079 289.6 266.079 345.53L252.39 381.988L215.933 368.299C160.003 347.299 131.687 284.935 152.687 229.005L166.375 192.548L166.375 192.548Z" id="Forma" fill="url(#gradient_3)" stroke="none" />
    <path d="M248.053 380.359L165.713 194.311L166.375 192.548L202.832 206.237C258.762 227.237 287.078 289.6 266.078 345.53L252.39 381.987L248.053 380.359L248.053 380.359Z" id="Forma" fill="#529D6A" fill-opacity="0.5" fill-rule="evenodd" stroke="none" />
    <path d="M319.978 674.058L346.893 666.806C388.184 655.681 430.676 680.135 441.801 721.426L449.053 748.342L422.138 755.593C380.846 766.719 338.355 742.264 327.229 700.973L319.978 674.058L319.978 674.058Z" id="Forma" fill="url(#gradient_4)" stroke="none" />
    <path d="M445.852 749.204L320.329 675.36L319.978 674.058L346.893 666.806C388.184 655.681 430.676 680.135 441.801 721.426L449.053 748.341L445.852 749.204L445.852 749.204Z" id="Forma" fill="#529D6A" fill-opacity="0.5" fill-rule="evenodd" stroke="none" />
    <path d="M127.644 549.519C127.644 498.141 169.295 456.49 220.673 456.49C272.051 456.49 313.702 498.141 313.702 549.519C313.702 600.897 272.051 642.548 220.673 642.548C169.295 642.548 127.644 600.897 127.644 549.519Z" id="Círculo" fill="url(#gradient_5)" fill-rule="evenodd" stroke="none" />
    <path d="M307.886 581.971C311.647 571.867 313.703 560.933 313.703 549.519C313.703 537.285 311.341 525.603 307.049 514.904L134.298 514.904C130.006 525.603 127.645 537.285 127.645 549.519C127.645 560.933 129.701 571.867 133.462 581.971L307.886 581.971L307.886 581.971Z" id="Forma" fill="#E3E798" fill-rule="evenodd" stroke="none" />
    <path d="M220.673 635.935C268.4 635.935 307.089 597.245 307.089 549.519C307.089 501.793 268.4 463.103 220.673 463.103C172.947 463.103 134.257 501.793 134.257 549.519C134.257 597.245 172.947 635.935 220.673 635.935L220.673 635.935ZM220.673 642.548C272.052 642.548 313.702 600.898 313.702 549.519C313.702 498.141 272.052 456.49 220.673 456.49C169.295 456.49 127.645 498.141 127.645 549.519C127.645 600.898 169.295 642.548 220.673 642.548L220.673 642.548Z" id="Forma" fill="#F3F4CB" fill-rule="evenodd" stroke="none" />
    <path d="M585.46 192.437C562.47 192.158 543.71 198.219 533.86 214.517C529.23 222.174 529.29 229.275 532.87 236.022C536.49 242.854 543.76 249.389 553.68 255.66C573.5 268.193 603.46 279.377 634.37 289.728C644.31 293.056 654.35 296.297 664.16 299.469C684.82 306.143 704.52 312.505 720.31 318.703C731.95 323.273 741.56 327.787 747.89 332.319C751.06 334.584 753.48 336.902 754.91 339.295C756.36 341.721 756.8 344.251 755.95 346.816C754.96 349.793 752.66 351.795 749.59 353.047C746.54 354.29 742.66 354.827 738.31 354.875C729.61 354.97 718.73 353.103 708.14 350.598C697.54 348.089 687.17 344.924 679.45 342.387C675.59 341.119 672.39 340.007 670.16 339.211C669.04 338.814 668.16 338.495 667.57 338.276C667.27 338.166 667.04 338.081 666.88 338.024L666.71 337.958L666.65 337.936C666.65 337.936 666.65 337.936 667 337C667.35 336.064 667.35 336.064 667.35 336.064L667.36 336.065L667.41 336.085L667.58 336.149C667.73 336.206 667.96 336.29 668.26 336.398C668.85 336.616 669.72 336.932 670.83 337.327C673.05 338.118 676.23 339.225 680.08 340.487C687.77 343.014 698.08 346.161 708.61 348.652C719.15 351.146 729.83 352.967 738.29 352.875C742.52 352.829 746.11 352.303 748.83 351.195C751.53 350.095 753.29 348.457 754.05 346.184C754.69 344.272 754.4 342.346 753.19 340.322C751.96 338.265 749.79 336.137 746.73 333.946C740.61 329.566 731.19 325.125 719.58 320.564C703.85 314.39 684.25 308.06 663.63 301.398C653.8 298.222 643.73 294.971 633.74 291.624C602.85 281.28 572.67 270.03 552.61 257.351C542.59 251.016 534.97 244.252 531.1 236.958C527.19 229.58 527.16 221.731 532.14 213.483C542.54 196.281 562.22 190.155 585.49 190.438C608.78 190.721 635.94 197.416 661.76 206.178C687.59 214.945 712.15 225.807 730.24 234.473C739.28 238.807 746.72 242.594 751.89 245.297C754.48 246.649 756.5 247.731 757.88 248.474C758.56 248.846 759.09 249.134 759.45 249.328C759.62 249.426 759.76 249.5 759.85 249.55L759.95 249.607L759.98 249.625C759.99 249.626 759.99 249.626 759.5 250.5C759.01 251.374 759.01 251.373 759.01 251.373L758.98 251.356L758.88 251.3C758.79 251.251 758.66 251.178 758.48 251.082C758.13 250.889 757.61 250.604 756.93 250.234C755.56 249.494 753.54 248.417 750.97 247.07C745.81 244.375 738.4 240.599 729.37 236.277C711.32 227.631 686.85 216.805 661.12 208.072C635.37 199.334 608.44 192.717 585.46 192.437L585.46 192.437ZM760.37 250.986C760.11 251.469 759.5 251.642 759.01 251.374L759.5 250.5L759.99 249.626C760.47 249.895 760.64 250.504 760.37 250.986L760.37 250.986ZM666.06 336.647C666.26 336.131 666.84 335.87 667.35 336.064L667 337L666.65 337.936C666.13 337.741 665.87 337.164 666.06 336.647L666.06 336.647Z" id="Forma" fill="#BE424D" fill-rule="evenodd" stroke="none" />
    <path d="M829.81 283.34L476.366 259.64L394.411 255.458C322.902 251.81 262.254 307.416 259.699 378.973C256.98 455.096 320.815 516.799 396.802 511.498L495.95 504.581C503.23 504.073 504.26 493.798 497.23 491.851L386.592 461.223C368.94 456.336 364.967 433.096 379.993 422.624L413.626 399.183L451.073 419.008C506.13 448.157 573.43 440.614 620.66 399.997L658.1 367.813L831.27 291.618C835.41 289.796 834.33 283.643 829.81 283.34L829.81 283.34Z" id="Forma" fill="url(#gradient_6)" stroke="none" />
    <path d="M337.905 288.846L318.434 302.909C318.434 302.909 325.849 350.628 343.313 374.303C358.968 395.525 393.073 413.245 393.073 413.245L402.809 406.755C402.809 406.755 368.421 383.364 355.212 361.322C340.255 336.361 337.905 288.846 337.905 288.846L337.905 288.846Z" id="Forma" fill="url(#gradient_7)" stroke="none" />
    <path d="M385.029 418.864L385.501 418.654L361.734 418.654C351.061 418.654 340.552 416.022 331.139 410.991L291.484 389.796C289.435 388.701 287.336 391.165 288.742 393.014L297.566 404.611C312.604 424.375 332.996 439.41 356.322 447.933L376.847 455.433C366.615 443.585 370.724 425.222 385.029 418.864L385.029 418.864Z" id="Forma" fill="url(#gradient_8)" stroke="none" />
    <path d="M401.342 305.588L410.684 290.908L414.403 293.275L405.062 307.955C392.569 327.586 391.731 352.456 402.873 372.884L416.642 398.127L412.772 400.238L399.003 374.995C387.092 353.158 387.988 326.573 401.342 305.588L401.342 305.588Z" id="Forma" fill="#D15A63" fill-rule="evenodd" stroke="none" />
    <path d="M647.275 284.519C647.275 272.57 656.962 262.884 668.91 262.884C680.858 262.884 690.545 272.57 690.545 284.519C690.545 296.467 680.858 306.153 668.91 306.153C656.962 306.153 647.275 296.467 647.275 284.519Z" id="Círculo" fill="#4B1E20" fill-rule="evenodd" stroke="none" />
    <path d="M500.66 188.964C493.59 192.593 488.636 198.181 486.466 206.26C484.154 214.865 486.454 223.397 492.42 231.895C498.4 240.412 508.01 248.818 520.15 257.065C544.42 273.555 578.49 289.233 612.88 303.821C624.3 308.664 635.75 313.387 646.89 317.979C669.25 327.199 690.32 335.888 707.21 343.943C719.86 349.975 730.24 355.689 737.1 361.047C740.53 363.725 743.14 366.36 744.7 368.957C746.27 371.574 746.81 374.224 745.95 376.816C744.96 379.793 742.66 381.795 739.59 383.047C736.54 384.29 732.66 384.827 728.31 384.875C719.61 384.97 708.73 383.103 698.14 380.598C687.54 378.089 677.17 374.924 669.45 372.387C665.59 371.119 662.39 370.007 660.16 369.212C659.04 368.814 658.16 368.495 657.57 368.276C657.27 368.167 657.04 368.082 656.88 368.024L656.71 367.959L656.65 367.936C656.65 367.936 656.65 367.936 657 367C657.35 366.064 657.35 366.064 657.35 366.064L657.36 366.065L657.41 366.085L657.58 366.149C657.68 366.187 657.81 366.236 657.98 366.297C658.06 366.328 658.16 366.362 658.26 366.398C658.85 366.616 659.72 366.932 660.83 367.327C663.05 368.118 666.23 369.225 670.08 370.487C677.77 373.014 688.08 376.161 698.61 378.652C709.15 381.147 719.83 382.967 728.29 382.875C732.52 382.829 736.11 382.303 738.83 381.195C741.53 380.096 743.29 378.457 744.05 376.184C744.68 374.299 744.35 372.261 742.98 369.987C741.61 367.692 739.21 365.234 735.87 362.624C729.19 357.407 718.97 351.77 706.35 345.748C689.5 337.716 668.52 329.064 646.2 319.857C635.05 315.261 623.57 310.526 612.1 305.662C577.72 291.076 543.47 275.332 519.03 258.719C506.81 250.414 496.96 241.848 490.78 233.044C484.59 224.221 482.024 215.084 484.534 205.741C486.864 197.069 492.22 191.048 499.75 187.185C507.24 183.34 516.86 181.642 527.77 181.5C549.58 181.217 576.89 187.16 603.54 195.167C630.21 203.181 656.31 213.289 675.73 221.39C685.44 225.441 693.49 228.992 699.11 231.53C701.92 232.799 704.12 233.816 705.63 234.515C706.38 234.864 706.95 235.135 707.34 235.318C707.54 235.41 707.68 235.479 707.78 235.526L707.93 235.597C707.93 235.597 707.93 235.598 707.5 236.5C707.07 237.402 707.07 237.402 707.07 237.401L706.92 237.333C706.87 237.306 706.79 237.272 706.71 237.23C706.64 237.2 706.57 237.165 706.49 237.127C706.1 236.945 705.53 236.676 704.78 236.328C703.29 235.632 701.09 234.619 698.29 233.353C692.68 230.821 684.65 227.278 674.96 223.235C655.57 215.149 629.54 205.069 602.96 197.083C576.36 189.09 549.29 183.221 527.79 183.5C517.05 183.64 507.77 185.316 500.66 188.964L500.66 188.964ZM708.4 236.931C708.16 237.43 707.57 237.64 707.07 237.402L707.5 236.5L707.93 235.598C708.43 235.836 708.64 236.433 708.4 236.931L708.4 236.931ZM656.06 366.648C656.26 366.131 656.84 365.87 657.35 366.064L657 367L656.65 367.936C656.13 367.741 655.87 367.164 656.06 366.648L656.06 366.648Z" id="Forma" fill="#BE424D" fill-rule="evenodd" stroke="none" />
    <path d="M535.66 295.964C528.59 299.593 523.64 305.181 521.47 313.26C519.15 321.865 521.45 330.397 527.42 338.895C533.4 347.412 543.01 355.818 555.15 364.065C579.42 380.555 613.49 396.233 647.88 410.821C659.3 415.664 670.75 420.387 681.89 424.979C704.25 434.199 725.32 442.888 742.21 450.943C754.86 456.975 765.24 462.689 772.1 468.047C775.53 470.725 778.14 473.36 779.7 475.957C781.27 478.574 781.81 481.224 780.95 483.816C779.96 486.793 777.66 488.795 774.59 490.047C771.54 491.29 767.66 491.827 763.31 491.875C754.61 491.97 743.73 490.103 733.14 487.598C722.54 485.089 712.17 481.924 704.45 479.387C700.59 478.119 697.39 477.007 695.16 476.212C694.04 475.814 693.16 475.495 692.57 475.276C692.27 475.167 692.04 475.082 691.88 475.024L691.71 474.959L691.65 474.936C691.65 474.936 691.65 474.936 692 474C692.35 473.064 692.35 473.064 692.35 473.064L692.36 473.065L692.41 473.085L692.58 473.149C692.68 473.187 692.81 473.236 692.98 473.297C693.06 473.328 693.16 473.362 693.26 473.398C693.85 473.616 694.72 473.932 695.83 474.327C698.05 475.118 701.23 476.225 705.08 477.487C712.77 480.014 723.08 483.161 733.61 485.652C744.15 488.147 754.83 489.967 763.29 489.875C767.52 489.829 771.11 489.303 773.83 488.195C776.53 487.096 778.29 485.457 779.05 483.184C779.68 481.299 779.35 479.261 777.98 476.987C776.61 474.692 774.21 472.234 770.87 469.624C764.19 464.407 753.97 458.77 741.35 452.748C724.5 444.716 703.52 436.064 681.2 426.857C670.05 422.261 658.57 417.526 647.1 412.662C612.72 398.076 578.47 382.332 554.03 365.719C541.81 357.414 531.96 348.848 525.78 340.044C519.59 331.221 517.02 322.084 519.53 312.741C521.86 304.069 527.22 298.048 534.75 294.185C542.24 290.34 551.86 288.642 562.77 288.5C584.58 288.217 611.89 294.16 638.54 302.167C665.21 310.181 691.31 320.289 710.73 328.39C720.44 332.441 728.49 335.992 734.11 338.53C736.92 339.799 739.12 340.816 740.63 341.515C741.38 341.864 741.95 342.135 742.34 342.318C742.54 342.41 742.68 342.479 742.78 342.526L742.93 342.597C742.93 342.597 742.93 342.598 742.5 343.5C742.07 344.402 742.07 344.402 742.07 344.401L741.92 344.333C741.87 344.306 741.79 344.272 741.71 344.23C741.64 344.2 741.57 344.165 741.49 344.127C741.1 343.945 740.53 343.676 739.78 343.328C738.29 342.632 736.09 341.619 733.29 340.353C727.68 337.821 719.65 334.278 709.96 330.235C690.57 322.149 664.54 312.069 637.96 304.083C611.36 296.09 584.29 290.221 562.79 290.5C552.05 290.64 542.77 292.316 535.66 295.964L535.66 295.964ZM743.4 343.931C743.16 344.43 742.57 344.64 742.07 344.402L742.5 343.5L742.93 342.598C743.43 342.836 743.64 343.433 743.4 343.931L743.4 343.931ZM691.06 473.648C691.26 473.131 691.84 472.87 692.35 473.064L692 474L691.65 474.936C691.13 474.741 690.87 474.164 691.06 473.648L691.06 473.648Z" id="Forma" fill="#BE424D" fill-rule="evenodd" stroke="none" />
    <path d="M846.72 427.186L493.27 403.486L411.316 399.304C339.807 395.656 279.159 451.262 276.604 522.819C273.885 598.942 337.72 660.646 413.708 655.344L512.85 648.427C520.13 647.919 521.16 637.644 514.13 635.697L403.497 605.069C385.845 600.182 381.873 576.942 396.898 566.47L430.531 543.029L467.978 562.854C523.04 592.003 590.33 584.46 637.57 543.843L675 511.659L848.17 435.464C852.31 433.642 851.23 427.489 846.72 427.186L846.72 427.186Z" id="Forma" fill="url(#gradient_9)" stroke="none" />
    <path d="M590.46 369.437C567.47 369.158 548.71 375.219 538.86 391.517C534.23 399.174 534.29 406.275 537.87 413.022C541.49 419.854 548.76 426.389 558.68 432.66C578.5 445.193 608.46 456.377 639.37 466.728C649.31 470.056 659.35 473.297 669.16 476.469C689.82 483.143 709.52 489.505 725.31 495.703C736.95 500.273 746.56 504.787 752.89 509.319C756.06 511.584 758.48 513.902 759.91 516.295C761.36 518.721 761.8 521.251 760.95 523.816C759.96 526.793 757.66 528.795 754.59 530.047C751.54 531.29 747.66 531.827 743.31 531.875C734.61 531.97 723.73 530.103 713.14 527.598C702.54 525.089 692.17 521.924 684.45 519.387C680.59 518.119 677.39 517.007 675.16 516.211C674.04 515.814 673.16 515.495 672.57 515.276C672.27 515.166 672.04 515.081 671.88 515.024L671.71 514.958L671.65 514.936C671.65 514.936 671.65 514.936 672 514C672.35 513.064 672.35 513.064 672.35 513.064L672.36 513.065L672.41 513.085L672.58 513.149C672.73 513.206 672.96 513.29 673.26 513.398C673.85 513.616 674.72 513.932 675.83 514.327C678.05 515.118 681.23 516.225 685.08 517.487C692.77 520.014 703.08 523.161 713.61 525.652C724.15 528.146 734.83 529.967 743.29 529.875C747.52 529.829 751.11 529.303 753.83 528.195C756.53 527.095 758.29 525.457 759.05 523.184C759.69 521.272 759.4 519.346 758.19 517.322C756.96 515.265 754.79 513.137 751.73 510.946C745.61 506.566 736.19 502.125 724.58 497.564C708.85 491.39 689.25 485.06 668.63 478.398C658.8 475.222 648.73 471.971 638.74 468.624C607.85 458.28 577.67 447.03 557.61 434.351C547.59 428.016 539.97 421.252 536.1 413.958C532.19 406.58 532.16 398.731 537.14 390.483C547.54 373.281 567.22 367.155 590.49 367.438C613.78 367.721 640.94 374.416 666.76 383.178C692.59 391.945 717.15 402.807 735.24 411.473C744.28 415.807 751.72 419.594 756.89 422.297C759.48 423.649 761.5 424.731 762.88 425.474C763.56 425.846 764.09 426.134 764.45 426.328C764.62 426.426 764.76 426.5 764.85 426.55L764.95 426.607L764.98 426.625C764.99 426.626 764.99 426.626 764.5 427.5C764.01 428.374 764.01 428.373 764.01 428.373L763.98 428.356L763.88 428.3C763.79 428.251 763.66 428.178 763.48 428.082C763.13 427.889 762.61 427.604 761.93 427.234C760.56 426.494 758.54 425.417 755.97 424.07C750.81 421.375 743.4 417.599 734.37 413.277C716.32 404.631 691.85 393.805 666.12 385.072C640.37 376.334 613.44 369.717 590.46 369.437L590.46 369.437ZM765.37 427.986C765.11 428.469 764.5 428.642 764.01 428.374L764.5 427.5L764.99 426.626C765.47 426.895 765.64 427.504 765.37 427.986L765.37 427.986ZM671.06 513.647C671.26 513.131 671.84 512.87 672.35 513.064L672 514L671.65 514.936C671.13 514.741 670.87 514.164 671.06 513.647L671.06 513.647Z" id="Forma" fill="#BE424D" fill-rule="evenodd" stroke="none" />
    <path d="M354.808 432.692L335.336 446.755C335.336 446.755 342.752 494.474 360.216 518.149C375.871 539.371 409.976 557.091 409.976 557.091L419.711 550.601C419.711 550.601 385.324 527.21 372.115 505.168C357.157 480.207 354.808 432.692 354.808 432.692L354.808 432.692Z" id="Forma" fill="url(#gradient_10)" stroke="none" />
    <path d="M401.931 562.71L402.403 562.5L378.635 562.5C367.962 562.5 357.454 559.868 348.041 554.837L308.386 533.642C306.337 532.547 304.237 535.011 305.644 536.86L314.468 548.457C329.506 568.221 349.897 583.256 373.224 591.779L393.749 599.279C383.517 587.431 387.625 569.068 401.931 562.71L401.931 562.71Z" id="Forma" fill="url(#gradient_11)" stroke="none" />
    <path d="M418.245 449.434L427.587 434.754L431.306 437.121L421.964 451.801C409.472 471.432 408.633 496.302 419.776 516.73L433.545 541.973L429.675 544.084L415.906 518.841C403.995 497.004 404.891 470.419 418.245 449.434L418.245 449.434Z" id="Forma" fill="#D15A63" fill-rule="evenodd" stroke="none" />
    <path d="M664.185 428.365C664.185 416.417 673.871 406.73 685.82 406.73C697.768 406.73 707.454 416.417 707.454 428.365C707.454 440.314 697.768 450 685.82 450C673.871 450 664.185 440.314 664.185 428.365Z" id="Círculo" fill="#4B1E20" fill-rule="evenodd" stroke="none" />
    <path d="M287.021 354.296C261.694 339.513 231.532 335.397 203.17 342.853C174.808 350.309 150.57 368.726 135.787 394.054C121.004 419.381 116.888 449.543 124.344 477.905C131.8 506.267 150.217 530.505 175.544 545.288L231.283 449.792L287.021 354.296L287.021 354.296Z" id="Forma" fill="#DBE272" stroke="none" />
    <path d="M120.814 454.561L230.411 451.082L174.923 354.662C158.882 364.167 145.355 377.663 135.788 394.054C125.015 412.511 119.907 433.536 120.814 454.561L120.814 454.561Z" id="Forma" fill="#E3E798" fill-rule="evenodd" stroke="none" />
    <path d="M121.146 478.745C113.468 449.535 117.707 418.471 132.932 392.387C148.157 366.302 173.12 347.334 202.33 339.655C231.54 331.977 262.604 336.216 288.689 351.441L285.355 357.152C260.785 342.811 231.525 338.818 204.011 346.051C176.497 353.284 152.984 371.151 138.643 395.72C124.302 420.29 120.309 449.55 127.542 477.064C134.775 504.578 152.642 528.092 177.211 542.432L173.878 548.144C147.793 532.919 128.825 507.956 121.146 478.745L121.146 478.745Z" id="Forma" fill="#F3F4CB" fill-rule="evenodd" stroke="none" />
    <path d="M568.63 643.64L567.18 677.043C564.97 728.287 521.64 768.035 470.394 765.823L436.991 764.381L438.433 730.978C440.645 679.735 483.979 639.987 535.22 642.199L568.63 643.64L568.63 643.64Z" id="Forma" fill="url(#gradient_12)" stroke="none" />
    <path d="M437.163 760.408L567.01 643.571L568.63 643.641L567.18 677.043C564.97 728.287 521.64 768.035 470.394 765.823L436.991 764.381L437.163 760.408L437.163 760.408Z" id="Forma" fill="#529D6A" fill-opacity="0.5" fill-rule="evenodd" stroke="none" />
    <path d="M652.42 569.104C653.17 564.252 657.34 560.67 662.25 560.67L696.98 560.67C724.72 560.67 749.38 582.376 739.84 608.416C736.85 616.575 732.47 624.738 726.11 631.956C718.33 640.78 708.33 646.973 697.87 651.313C667.74 663.821 642.54 633.323 647.5 601.076L652.42 569.104L652.42 569.104Z" id="Forma" fill="url(#gradient_13)" stroke="none" />
    <path d="M659.05 569.104C659.8 564.252 663.97 560.67 668.88 560.67L703.61 560.67C731.35 560.67 756.01 582.376 746.47 608.416C743.48 616.575 739.1 624.738 732.74 631.956C724.96 640.78 714.96 646.973 704.5 651.313C674.37 663.821 649.17 633.323 654.13 601.076L659.05 569.104L659.05 569.104Z" id="Forma" fill="#F5E6D5" stroke="none" />
    <path d="M682.43 620.184C685.29 632.385 702.79 632.005 705.12 619.691L705.24 619.07C705.41 618.17 706.28 617.579 707.18 617.75C708.08 617.92 708.67 618.788 708.5 619.687L708.38 620.308C705.38 636.141 682.88 636.63 679.2 620.942L675.14 603.675C671.07 586.351 687.64 571.312 704.49 577.041L722.98 583.328C737.17 588.154 736.18 608.549 721.59 611.979L714.02 613.759C713.12 613.968 712.23 613.415 712.02 612.524C711.81 611.633 712.37 610.74 713.26 610.531L720.83 608.751C732.18 606.083 732.95 590.221 721.91 586.467L703.42 580.18C689.04 575.289 674.89 588.128 678.37 602.916L682.43 620.184L682.43 620.184Z" id="Forma" fill="url(#gradient_14)" fill-rule="evenodd" stroke="none" />
    <path d="M541.6 133.984C540.97 129.116 536.87 125.437 531.97 125.323L497.24 124.516C469.517 123.871 444.36 144.998 453.293 171.254C456.091 179.48 460.277 187.742 466.469 195.106C474.039 204.109 483.896 210.533 494.25 215.114C524.08 228.319 549.98 198.415 545.77 166.061L541.6 133.984L541.6 133.984Z" id="Forma" fill="url(#gradient_15)" stroke="none" />
    <path d="M534.97 133.83C534.33 128.961 530.24 125.283 525.34 125.169L490.61 124.362C462.887 123.717 437.729 144.844 446.662 171.1C449.461 179.326 453.646 187.588 459.838 194.952C467.408 203.955 477.265 210.379 487.617 214.96C517.45 228.165 543.35 198.261 539.14 165.907L534.97 133.83L534.97 133.83Z" id="Forma" fill="#F5E6D5" stroke="none" />
    <path d="M510.41 184.352C507.26 196.484 489.781 195.697 487.732 183.332L487.629 182.708C487.479 181.805 486.626 181.194 485.723 181.344C484.819 181.493 484.208 182.347 484.358 183.25L484.461 183.874C487.095 199.772 509.57 200.784 513.62 185.186L518.08 168.017C522.55 150.793 506.33 135.372 489.358 140.708L470.727 146.564C456.426 151.059 456.941 171.471 471.45 175.239L478.981 177.195C479.867 177.425 480.772 176.893 481.003 176.007C481.233 175.121 480.701 174.216 479.815 173.986L472.284 172.03C460.999 169.1 460.598 153.223 471.721 149.727L490.35 143.871C504.84 139.316 518.69 152.48 514.87 167.184L510.41 184.352L510.41 184.352Z" id="Forma" fill="url(#gradient_16)" fill-rule="evenodd" stroke="none" />
    <path d="M370.685 166.436C370.051 161.567 365.96 157.889 361.052 157.775L326.329 156.968C298.603 156.323 273.446 177.45 282.379 203.706C285.177 211.932 289.363 220.194 295.555 227.558C303.125 236.561 312.982 242.985 323.333 247.566C353.168 260.771 379.069 230.867 374.859 198.513L370.685 166.436L370.685 166.436Z" id="Forma" fill="url(#gradient_17)" stroke="none" />
    <path d="M364.054 166.282C363.421 161.413 359.33 157.735 354.422 157.621L319.699 156.814C291.973 156.169 266.815 177.296 275.748 203.552C278.547 211.778 282.732 220.04 288.924 227.404C296.494 236.407 306.351 242.83 316.703 247.412C346.538 260.617 372.439 230.713 368.229 198.359L364.054 166.282L364.054 166.282Z" id="Forma" fill="#F5E6D5" stroke="none" />
    <path d="M339.499 216.804C336.348 228.936 318.866 228.149 316.818 215.784L316.714 215.16C316.565 214.257 315.711 213.646 314.808 213.796C313.905 213.945 313.294 214.799 313.443 215.702L313.547 216.326C316.18 232.224 338.657 233.235 342.708 217.638L347.166 200.469C351.639 183.245 335.42 167.824 318.443 173.16L299.812 179.016C285.512 183.511 286.027 203.923 300.536 207.691L308.067 209.647C308.953 209.877 309.858 209.345 310.088 208.459C310.318 207.573 309.786 206.668 308.9 206.438L301.369 204.482C290.084 201.551 289.684 185.675 300.806 182.179L319.437 176.323C333.93 171.768 347.775 184.932 343.957 199.636L339.499 216.804L339.499 216.804Z" id="Forma" fill="url(#gradient_18)" fill-rule="evenodd" stroke="none" />
  </g>
</svg>